<?xml version="1.0" standalone="no"?>
<!DOCTYPE svg PUBLIC "-//W3C//DTD SVG 20010904//EN"
 "http://www.w3.org/TR/2001/REC-SVG-20010904/DTD/svg10.dtd">
<svg version="1.0" xmlns="http://www.w3.org/2000/svg"
 width="1024.000000pt" height="1024.000000pt" viewBox="0 0 1024.000000 1024.000000"
 preserveAspectRatio="xMidYMid meet">

<g transform="translate(0.000000,1024.000000) scale(0.100000,-0.100000)"
fill="#000000" stroke="none">
<path d="M5127 7433 c-4 -3 -7 -221 -7 -484 l0 -478 38 -9 c37 -9 173 -25 582
-67 445 -46 735 -80 713 -83 -12 -2 -104 6 -205 17 -101 11 -221 23 -268 26
-47 3 -123 10 -170 15 -47 5 -157 17 -245 25 -88 9 -214 23 -280 30 -65 8
-121 13 -123 11 -5 -6 19 -51 141 -261 106 -183 146 -251 267 -455 104 -175
197 -334 285 -490 48 -85 112 -197 141 -248 30 -51 54 -95 54 -97 0 -5 157
-280 219 -383 17 -29 31 -56 31 -60 0 -12 -91 135 -212 343 -64 110 -204 351
-311 535 -107 184 -281 486 -387 670 -105 184 -208 363 -228 398 -20 34 -39
62 -43 62 -4 0 -17 -16 -29 -35 -12 -19 -24 -35 -27 -35 -2 0 5 16 17 36 12
19 20 37 18 40 -3 2 -61 -2 -129 -11 -68 -8 -394 -42 -724 -75 -330 -33 -616
-62 -635 -65 -19 -2 -89 -7 -155 -10 -108 -5 -206 -15 -305 -32 -19 -4 -38 -6
-42 -5 -5 1 -8 -516 -8 -1148 l0 -1151 31 -17 c17 -9 68 -39 113 -66 79 -47
386 -223 496 -283 79 -44 220 -125 405 -232 88 -51 212 -123 275 -159 137 -78
517 -302 612 -360 37 -23 79 -42 94 -42 14 0 44 13 67 29 45 30 378 226 867
508 498 287 629 363 785 451 83 46 169 95 192 108 23 13 55 36 72 50 l31 26 0
1140 0 1140 -31 29 c-16 15 -46 34 -65 41 -19 6 -34 16 -34 21 0 4 -4 5 -10 2
-5 -3 -10 -1 -10 4 0 6 -9 11 -21 11 -13 0 -18 4 -13 12 4 7 3 8 -4 4 -14 -9
-174 82 -167 95 4 5 0 7 -7 4 -18 -7 -334 180 -330 195 1 6 -2 9 -8 5 -14 -9
-52 14 -44 27 4 7 3 8 -5 4 -15 -10 -123 52 -115 66 4 7 2 8 -5 4 -14 -9 -123
52 -116 65 4 5 -3 9 -15 9 -11 0 -23 7 -26 15 -4 8 -12 15 -20 15 -8 0 -14 5
-14 11 0 5 -4 7 -10 4 -5 -3 -10 -1 -10 5 0 6 -4 8 -10 5 -5 -3 -10 -1 -10 5
0 6 -8 10 -17 8 -10 -2 -17 3 -16 9 2 7 0 12 -5 11 -14 -3 -62 22 -62 32 0 6
-5 8 -11 5 -5 -4 -18 1 -27 12 -9 10 -24 19 -32 21 -8 2 -20 10 -26 18 -6 7
-19 14 -28 14 -9 0 -19 7 -22 15 -4 8 -10 12 -15 9 -5 -3 -9 0 -9 6 0 6 -4 9
-8 6 -5 -3 -18 3 -29 13 -11 10 -29 22 -41 25 -12 4 -22 12 -22 17 0 6 -4 7
-10 4 -5 -3 -10 -1 -10 4 0 6 -6 11 -14 11 -8 0 -21 7 -29 15 -19 19 -456 275
-469 275 -3 0 -8 -3 -11 -7z m-103 -1130 c-134 -244 -558 -982 -628 -1093 -13
-19 -91 -152 -174 -295 -83 -143 -158 -269 -167 -280 -21 -26 24 56 166 305
126 222 154 271 336 580 66 113 180 309 253 435 183 316 242 415 247 415 2 0
-13 -30 -33 -67z m696 -108 c17 -25 27 -45 23 -45 -5 0 -14 10 -22 23 -8 12
-21 32 -29 45 -27 42 -3 22 28 -23z m430 -79 c0 -3 -4 -8 -10 -11 -5 -3 -10
-1 -10 4 0 6 5 11 10 11 6 0 10 -2 10 -4z m-2793 -433 c-2 -2 -17 25 -32 59
-40 93 -40 104 0 19 20 -40 34 -75 32 -78z m101 -213 c72 -165 83 -192 51
-135 -25 46 -139 303 -139 313 1 14 25 -35 88 -178z m3379 128 c-3 -8 -6 -5
-6 6 -1 11 2 17 5 13 3 -3 4 -12 1 -19z m-152 -348 c3 -5 1 -10 -4 -10 -6 0
-11 5 -11 10 0 6 2 10 4 10 3 0 8 -4 11 -10z m-15 -40 c0 -5 -5 -10 -11 -10
-5 0 -7 5 -4 10 3 6 8 10 11 10 2 0 4 -4 4 -10z m-29 -53 c-10 -9 -11 -8 -5 6
3 10 9 15 12 12 3 -3 0 -11 -7 -18z m-90 -200 c-10 -9 -11 -8 -5 6 3 10 9 15
12 12 3 -3 0 -11 -7 -18z m-41 -110 c-10 -30 -28 -73 -41 -98 -13 -24 -23 -46
-24 -49 -1 -8 -35 -55 -35 -48 0 4 18 48 40 98 68 155 91 192 60 97z m-2496
-287 c-10 -16 -20 -28 -22 -26 -4 5 28 56 35 56 2 0 -4 -13 -13 -30z m2358
-28 c-7 -2 -12 -13 -12 -25 0 -17 -2 -19 -9 -8 -6 10 -4 22 7 37 10 12 19 17
21 11 2 -6 -1 -13 -7 -15z m-1245 -128 c-3 -3 -12 -4 -19 -1 -8 3 -5 6 6 6 11
1 17 -2 13 -5z"/>
<path d="M4957 7323 c-4 -3 -7 -11 -7 -17 0 -6 5 -5 12 2 6 6 9 14 7 17 -3 3
-9 2 -12 -2z"/>
<path d="M4890 7280 c-8 -5 -12 -12 -9 -15 4 -3 12 1 19 10 14 17 11 19 -10 5z"/>
<path d="M4646 7095 c4 -8 7 -15 9 -15 2 0 5 7 9 15 3 9 0 15 -9 15 -9 0 -12
-6 -9 -15z"/>
<path d="M4878 7053 c7 -3 16 -2 19 1 4 3 -2 6 -13 5 -11 0 -14 -3 -6 -6z"/>
<path d="M3907 6676 c-4 -9 2 -17 14 -21 27 -9 35 0 19 20 -16 19 -26 19 -33
1z"/>
<path d="M4005 6658 c7 -33 23 -43 23 -14 0 13 -6 27 -14 30 -8 3 -11 -2 -9
-16z"/>
<path d="M3935 6593 c-41 -66 -42 -72 -7 -40 16 16 33 28 37 27 4 -1 9 1 13 4
3 3 0 6 -6 6 -7 0 -12 7 -12 16 0 10 6 14 15 11 8 -4 17 -1 21 5 4 7 3 8 -4 4
-7 -4 -12 -2 -12 3 0 23 -16 9 -45 -36z"/>
<path d="M4212 6621 c-11 -6 -10 -10 0 -19 11 -8 14 -7 15 9 2 22 2 21 -15 10z"/>
<path d="M4030 6610 c-9 -6 -10 -10 -3 -10 6 0 15 5 18 10 8 12 4 12 -15 0z"/>
<path d="M4026 6565 c-17 -13 -18 -17 -6 -28 10 -10 11 -9 5 2 -6 11 -4 13 9
8 11 -4 15 -3 10 4 -4 6 0 15 7 20 8 5 10 9 4 9 -5 -1 -19 -7 -29 -15z"/>
<path d="M4168 6573 c7 -3 16 -2 19 1 4 3 -2 6 -13 5 -11 0 -14 -3 -6 -6z"/>
<path d="M3643 6548 c1 -7 -5 -13 -13 -13 -20 -1 -52 -20 -52 -31 0 -5 -5 -8
-11 -6 -7 2 -2 -6 10 -17 12 -12 28 -21 34 -21 7 0 4 6 -7 14 -25 19 -12 31
16 16 12 -7 20 -8 16 -2 -3 5 2 13 11 16 9 4 20 1 24 -5 4 -8 13 -1 23 19 20
38 20 42 1 42 -9 0 -12 -6 -9 -15 4 -8 2 -15 -4 -15 -5 0 -12 7 -16 15 -7 18
-27 20 -23 3z"/>
<path d="M4226 6543 c-6 -14 -5 -15 5 -6 7 7 10 15 7 18 -3 3 -9 -2 -12 -12z"/>
<path d="M4055 6531 c-6 -11 9 -23 19 -14 9 9 7 23 -3 23 -6 0 -12 -4 -16 -9z"/>
<path d="M4163 6530 c2 -8 10 -14 17 -12 11 3 11 0 0 -12 -9 -12 -9 -16 -1
-16 7 0 9 -4 6 -10 -3 -5 1 -10 9 -10 10 0 15 7 13 20 -3 21 -27 51 -27 35 0
-6 -5 -3 -11 5 -9 13 -10 13 -6 0z"/>
<path d="M3715 6494 c0 -24 -4 -34 -15 -35 -8 -1 -22 -2 -30 -3 -8 0 -14 -7
-12 -14 2 -10 -2 -10 -20 -1 -21 11 -22 11 -10 -4 12 -14 11 -15 -11 -11 -16
2 -27 -1 -31 -11 -4 -11 0 -15 12 -13 9 2 16 -2 15 -9 -3 -13 22 -12 34 2 4 4
2 5 -6 0 -10 -6 -12 -4 -6 4 5 9 11 9 17 3 6 -6 17 -9 24 -6 47 14 47 15 36
26 -7 7 -12 17 -12 23 0 5 5 3 10 -5 9 -13 11 -13 19 -1 5 8 6 24 1 35 -5 14
-2 24 8 32 13 9 12 12 -5 16 -17 4 -19 0 -18 -28z"/>
<path d="M4095 6520 c-3 -5 -1 -10 4 -10 6 0 11 5 11 10 0 6 -2 10 -4 10 -3 0
-8 -4 -11 -10z"/>
<path d="M3765 6500 c-19 -8 -19 -9 3 -9 12 -1 22 4 22 9 0 6 -1 10 -2 9 -2 0
-12 -4 -23 -9z"/>
<path d="M3805 6500 c3 -5 11 -10 16 -10 6 0 7 5 4 10 -3 6 -11 10 -16 10 -6
0 -7 -4 -4 -10z"/>
<path d="M4923 6498 c5 -15 1 -18 -26 -19 -42 -1 -67 -6 -75 -15 -7 -7 141 2
218 13 42 7 43 7 15 13 -16 3 -47 3 -68 -1 -28 -5 -42 -2 -54 10 -16 15 -16
15 -10 -1z"/>
<path d="M3795 6459 c-4 -11 -21 -29 -38 -40 -18 -10 -27 -19 -22 -19 6 0 2
-5 -8 -11 -9 -5 -22 -7 -29 -3 -6 4 -8 3 -4 -4 9 -14 44 -11 50 5 3 7 13 10
23 7 15 -5 16 -4 3 5 -13 9 -13 11 3 11 9 0 17 7 17 16 0 8 4 13 8 10 4 -2 9
6 10 20 2 29 -4 31 -13 3z"/>
<path d="M4141 6471 c-7 -5 -9 -11 -4 -14 5 -3 15 -2 22 2 7 5 9 11 4 14 -5 3
-15 2 -22 -2z"/>
<path d="M3556 6455 c4 -8 10 -12 15 -9 11 6 2 24 -11 24 -5 0 -7 -7 -4 -15z"/>
<path d="M4310 6452 c0 -6 -8 -13 -17 -15 -16 -4 -16 -5 -1 -6 18 -1 34 16 24
26 -3 4 -6 1 -6 -5z"/>
<path d="M4748 6453 c6 -2 18 -2 25 0 6 3 1 5 -13 5 -14 0 -19 -2 -12 -5z"/>
<path d="M4180 6445 c0 -7 30 -13 34 -7 3 4 -4 9 -15 9 -10 1 -19 0 -19 -2z"/>
<path d="M4663 6443 c9 -2 25 -2 35 0 9 3 1 5 -18 5 -19 0 -27 -2 -17 -5z"/>
<path d="M4598 6433 c7 -3 16 -2 19 1 4 3 -2 6 -13 5 -11 0 -14 -3 -6 -6z"/>
<path d="M3530 6416 c0 -9 5 -16 10 -16 6 0 10 4 10 9 0 6 -4 13 -10 16 -5 3
-10 -1 -10 -9z"/>
<path d="M4178 6423 c6 -2 12 -11 12 -19 0 -8 5 -14 10 -14 7 0 7 6 0 20 -6
11 -16 20 -23 19 -9 0 -9 -2 1 -6z"/>
<path d="M4256 6415 c-3 -8 -1 -15 4 -15 6 0 10 7 10 15 0 8 -2 15 -4 15 -2 0
-6 -7 -10 -15z"/>
<path d="M4302 6413 c-22 -10 -12 -11 63 -6 120 7 154 21 47 19 -46 0 -96 -6
-110 -13z"/>
<path d="M4518 6423 c7 -3 16 -2 19 1 4 3 -2 6 -13 5 -11 0 -14 -3 -6 -6z"/>
<path d="M3826 6407 c3 -10 9 -15 12 -12 3 3 0 11 -7 18 -10 9 -11 8 -5 -6z"/>
<path d="M3805 6390 c3 -5 8 -10 11 -10 2 0 4 5 4 10 0 6 -5 10 -11 10 -5 0
-7 -4 -4 -10z"/>
<path d="M3655 6370 c-3 -5 -2 -10 4 -10 5 0 13 5 16 10 3 6 2 10 -4 10 -5 0
-13 -4 -16 -10z"/>
<path d="M3353 6364 c-7 -3 -9 -12 -6 -20 7 -19 -7 -18 -22 3 -11 15 -14 15
-36 -2 -15 -11 -17 -15 -6 -12 19 7 24 -9 5 -16 -8 -3 -6 -6 5 -6 9 -1 17 2
17 7 0 9 52 9 68 -1 7 -5 12 -3 12 4 0 8 4 8 16 -2 11 -9 17 -10 22 -2 4 6 19
15 35 18 15 4 24 11 21 17 -3 5 -20 0 -39 -11 -29 -17 -35 -18 -46 -5 -6 8
-18 14 -26 14 -8 0 -11 5 -8 10 7 11 6 11 -12 4z"/>
<path d="M3530 6355 c10 -12 10 -15 -1 -15 -10 0 -10 -3 -2 -11 7 -7 19 -9 27
-6 15 6 14 9 -1 27 -10 11 -21 20 -26 20 -5 0 -4 -7 3 -15z"/>
<path d="M3698 6349 c-7 -4 -16 -5 -22 -2 -5 3 -6 1 -3 -4 6 -9 85 -7 95 2 7
7 -59 11 -70 4z"/>
<path d="M3587 6339 c7 -7 15 -10 18 -7 3 3 -2 9 -12 12 -14 6 -15 5 -6 -5z"/>
<path d="M3635 6340 c4 -6 11 -8 16 -5 14 9 11 15 -7 15 -8 0 -12 -5 -9 -10z"/>
</g>
</svg>
